<svg width="20" height="20" viewBox="0 0 20 20" fill="none" xmlns="http://www.w3.org/2000/svg">
<g clip-path="url(#clip0_271_2745)">
<path d="M19.8736 2.90883C19.7641 2.772 19.5984 2.69235 19.4231 2.69235H4.06844L3.63906 0.831801C3.57863 0.570043 3.34555 0.384613 3.07691 0.384613H0.576914C0.25832 0.384613 0 0.642933 0 0.961566C0 1.2802 0.25832 1.53848 0.576914 1.53848H2.61797L5.5325 14.1682C5.59289 14.43 5.82602 14.6154 6.09465 14.6154H17.6538C17.9725 14.6154 18.2307 14.3571 18.2307 14.0385C18.2307 13.7198 17.9724 13.4616 17.6538 13.4616H6.55363L6.10988 11.5385H17.6923C17.9622 11.5385 18.196 11.3514 18.2552 11.0882L19.9859 3.3959C20.0244 3.22489 19.9831 3.04571 19.8736 2.90883ZM17.2308 10.3846H5.84359L4.33473 3.84618H18.7019L17.2308 10.3846Z" fill="#fff"/>
<path d="M8.46158 15.3846C7.29518 15.3846 6.34619 16.3336 6.34619 17.5C6.34619 18.6664 7.29514 19.6154 8.46158 19.6154C9.62799 19.6154 10.577 18.6664 10.577 17.5C10.577 16.3336 9.62803 15.3846 8.46158 15.3846ZM8.46158 18.4616C7.93139 18.4616 7.50006 18.0302 7.50006 17.5C7.50006 16.9698 7.93139 16.5385 8.46158 16.5385C8.99178 16.5385 9.42311 16.9698 9.42311 17.5C9.42311 18.0302 8.99178 18.4616 8.46158 18.4616Z" fill="#fff"/>
<path d="M15.3847 15.3846C14.2183 15.3846 13.2693 16.3336 13.2693 17.5C13.2693 18.6664 14.2182 19.6154 15.3847 19.6154C16.5511 19.6154 17.5001 18.6664 17.5001 17.5C17.5001 16.3336 16.5511 15.3846 15.3847 15.3846ZM15.3847 18.4616C14.8545 18.4616 14.4232 18.0302 14.4232 17.5C14.4232 16.9698 14.8545 16.5385 15.3847 16.5385C15.9149 16.5385 16.3462 16.9698 16.3462 17.5C16.3462 18.0302 15.9149 18.4616 15.3847 18.4616Z" fill="#fff"/>
</g>
<defs>
<clipPath id="clip0_271_2745">
<rect width="20" height="20" fill="white"/>
</clipPath>
</defs>
</svg>
