<svg width="20" height="21" viewBox="0 0 20 21" fill="none" xmlns="http://www.w3.org/2000/svg">
<path fill-rule="evenodd" clip-rule="evenodd" d="M15.7599 8.37186C15.7599 12.3183 12.5151 15.5437 8.47996 15.5437C4.44479 15.5437 1.2 12.3183 1.2 8.37186C1.2 4.42542 4.44479 1.2 8.47996 1.2C12.5151 1.2 15.7599 4.42542 15.7599 8.37186ZM14.0667 14.6702C12.5746 15.9612 10.6199 16.7437 8.47996 16.7437C3.79661 16.7437 0 12.9955 0 8.37186C0 3.74821 3.79661 0 8.47996 0C13.1633 0 16.9599 3.74821 16.9599 8.37186C16.9599 10.4535 16.1904 12.3576 14.9169 13.8222L19.8311 18.9897C20.0594 19.2297 20.0497 19.6095 19.8095 19.8379C19.5693 20.0664 19.1895 20.057 18.9612 19.8169L14.0667 14.6702Z" fill="#5f5f5f"/>
</svg>
